<svg xmlns="http://www.w3.org/2000/svg" viewBox="0 0 256 256" focusable="false"
    color="var(--token-65e9faee-b926-4daa-ab23-6a65ad28be8f, rgba(255, 255, 255, 1))"
    style="user-select: none; width: 100%; height: 100%; display: inline-block; fill: var(--token-65e9faee-b926-4daa-ab23-6a65ad28be8f, rgba(255, 255, 255, 1)); color: var(--token-65e9faee-b926-4daa-ab23-6a65ad28be8f, rgba(255, 255, 255, 1)); flex-shrink: 0;">
    <g color="var(--token-65e9faee-b926-4daa-ab23-6a65ad28be8f, rgba(255, 255, 255, 1))"
        weight="regular">
        <path
            d="M224,144v64a8,8,0,0,1-8,8H40a8,8,0,0,1-8-8V144a8,8,0,0,1,16,0v56H208V144a8,8,0,0,1,16,0Zm-101.66,5.66a8,8,0,0,0,11.32,0l40-40a8,8,0,0,0-11.32-11.32L136,124.69V32a8,8,0,0,0-16,0v92.69L93.66,98.34a8,8,0,0,0-11.32,11.32Z"></path>
    </g>
</svg>