<svg xmlns="http://www.w3.org/2000/svg" viewBox="0 0 256 256" focusable="false"
    color="var(--token-004f7432-50cf-439a-970d-c6de6d6e1d21, rgba(255, 255, 255, 1))"
    style="user-select: none; width: 100%; height: 100%; display: inline-block; fill: var(--token-004f7432-50cf-439a-970d-c6de6d6e1d21, rgba(255, 255, 255, 1)); color: var(--token-004f7432-50cf-439a-970d-c6de6d6e1d21, rgba(255, 255, 255, 1)); flex-shrink: 0;">
    <g color="var(--token-004f7432-50cf-439a-970d-c6de6d6e1d21, rgba(255, 255, 255, 1))"
        weight="duotone">
        <path d="M216,64V192H40V64Z" opacity="0.2"></path>
        <path
            d="M224,128a8,8,0,0,1-8,8H40a8,8,0,0,1,0-16H216A8,8,0,0,1,224,128ZM40,72H216a8,8,0,0,0,0-16H40a8,8,0,0,0,0,16ZM216,184H40a8,8,0,0,0,0,16H216a8,8,0,0,0,0-16Z"></path>
    </g>
</svg>